HIERARCHY
ROOT cyl_med
{
	OFFSET 0.000000 0.000000 0.000000
	CHANNELS 6 Xposition Yposition Zposition Yrotation Xrotation Zrotation
	End Site
	{
		OFFSET 0.000000 0.000000 0.000000
	}
}
MOTION
Frames: 101
Frame Time: 0.008333334
-1.045122 2.292813 3.043864 142.499600 -18.267640 70.132090 
-1.035462 2.377804 3.035923 142.954700 -17.186770 67.816200 
-1.024133 2.464489 3.024714 143.523800 -16.004700 65.541300 
-1.012834 2.551716 3.011252 144.133200 -14.948300 63.306290 
-1.001810 2.639609 2.993361 144.486700 -13.679170 61.071000 
-0.988702 2.727030 2.971475 145.186100 -12.415410 58.867580 
-0.974579 2.813240 2.946866 145.640700 -11.004790 56.944910 
-0.957546 2.897969 2.918239 146.112900 -9.535675 54.961990 
-0.939311 2.981262 2.886430 146.560700 -8.033752 53.150620 
-0.921977 3.062784 2.852540 146.977200 -6.433624 51.440660 
-0.900385 3.143524 2.815445 147.390400 -4.805359 49.654490 
-0.878832 3.220965 2.777336 147.736300 -3.244049 48.236190 
-0.855656 3.297587 2.735305 148.013500 -1.564178 46.698940 
-0.828715 3.373269 2.689838 148.360800 0.152237 45.340200 
-0.798029 3.446877 2.641279 148.753800 1.950275 44.177690 
-0.766508 3.521471 2.590682 148.962400 3.771016 42.945790 
-0.733377 3.596097 2.536535 149.260400 5.593963 41.667340 
-0.698732 3.671274 2.479757 149.601700 7.605514 40.331190 
-0.664996 3.744853 2.420193 149.744700 9.576605 39.112850 
-0.629712 3.816860 2.360050 150.005300 11.403460 37.932000 
-0.593458 3.886904 2.298114 150.255100 13.099390 36.781980 
-0.554849 3.953161 2.236330 150.290900 14.928820 35.744010 
-0.516096 4.015855 2.175421 150.366800 16.759130 34.813880 
-0.476265 4.075004 2.114111 150.527700 18.588670 34.058910 
-0.434724 4.132386 2.051258 150.714100 20.433810 33.474880 
-0.392232 4.187146 1.989608 150.717000 22.172930 32.877590 
-0.350693 4.240368 1.925652 150.748600 23.849740 32.189090 
-0.308016 4.292606 1.861109 150.900000 25.581520 31.629070 
-0.265283 4.344027 1.794709 151.072700 27.110770 30.841410 
-0.222412 4.394381 1.728920 151.289000 28.591310 30.244590 
-0.179882 4.441916 1.663561 151.540900 30.210490 29.588140 
-0.136073 4.487679 1.599534 151.699200 31.576730 29.023480 
-0.090203 4.530580 1.537125 152.081700 33.062070 28.644500 
-0.043221 4.571826 1.477601 152.380200 34.353050 28.265140 
0.004874 4.610165 1.420468 152.738900 35.658360 28.201000 
0.055589 4.646277 1.365320 153.124200 36.927150 28.142900 
0.105656 4.680417 1.311583 153.445400 38.115800 28.176300 
0.157679 4.712899 1.258885 154.190200 39.270280 28.306590 
0.208958 4.744517 1.207945 154.561700 40.389290 28.391360 
0.262326 4.774758 1.158461 155.062100 41.377640 28.510960 
0.315259 4.802460 1.110239 155.876900 42.458420 28.904840 
0.369424 4.828375 1.063868 156.527100 43.438360 29.271650 
0.422933 4.853143 1.017980 157.531300 44.356490 29.819840 
0.478616 4.875696 0.973952 158.240400 45.380520 30.142450 
0.532318 4.897480 0.931968 159.076200 46.278880 30.679600 
0.586343 4.917417 0.891287 159.905500 47.007400 31.349350 
0.641389 4.935502 0.852160 160.654700 47.875760 31.856610 
0.695139 4.951847 0.816186 161.661200 48.487590 32.673920 
0.748868 4.966402 0.781369 162.682100 49.220730 33.596120 
0.802495 4.979004 0.749412 163.765800 49.905280 34.605270 
0.855615 4.991070 0.717579 164.952200 50.503630 35.604180 
0.906148 4.999561 0.688069 165.882100 51.072730 36.454310 
0.956527 5.008846 0.657655 167.204600 51.479990 37.449030 
1.002314 5.017315 0.629861 168.279600 51.987760 38.278660 
1.044494 5.024476 0.604814 169.397000 52.456320 39.223970 
1.088857 5.030049 0.581017 170.507900 52.575160 40.119090 
1.127027 5.035131 0.557675 171.345400 52.992380 40.909120 
1.165390 5.039914 0.539409 172.327300 53.128110 41.697490 
1.201100 5.044038 0.521835 173.551400 53.310390 42.824980 
1.234439 5.046335 0.506770 174.367300 53.329070 43.481090 
1.264006 5.049945 0.492676 175.020500 53.461280 44.069160 
1.289484 5.053116 0.479823 175.868500 53.485960 44.850040 
1.311992 5.055955 0.468015 176.147300 53.259440 44.986620 
1.331206 5.059207 0.458307 176.736700 53.250580 45.395550 
1.345430 5.061847 0.452722 176.949400 53.298370 45.498780 
1.356503 5.065029 0.448171 177.258600 53.105760 45.669540 
1.363456 5.069386 0.449025 176.944400 52.878880 45.452290 
1.365068 5.072956 0.451043 176.904200 52.751390 45.400790 
1.361054 5.078161 0.454648 176.557500 52.495300 45.082020 
1.350725 5.082407 0.460592 175.824000 52.124920 44.448840 
1.337052 5.090258 0.470735 175.142400 51.547550 43.609730 
1.313293 5.098769 0.477701 174.144700 50.955370 42.411080 
1.284970 5.108163 0.491009 173.274400 50.313850 41.067240 
1.248265 5.119174 0.501920 172.069900 49.613970 39.452690 
1.205348 5.128961 0.516888 170.639900 48.831920 37.860550 
1.158927 5.139449 0.536856 169.334700 48.036470 36.084940 
1.103243 5.150482 0.557268 167.637000 47.002800 34.265480 
1.041335 5.161979 0.580475 165.610100 45.685950 32.080250 
0.973451 5.171245 0.607089 163.642800 44.506560 29.691700 
0.898067 5.180634 0.635961 161.853500 42.922740 27.572640 
0.818166 5.186552 0.668161 160.029500 41.440880 25.601400 
0.730805 5.191450 0.703359 158.038200 39.748630 23.319660 
0.635813 5.194141 0.743620 156.661300 37.572640 21.407040 
0.530847 5.196649 0.789085 154.954200 35.138520 19.129100 
0.415576 5.196910 0.838505 153.294600 32.270240 16.815840 
0.291660 5.191672 0.889275 152.164200 29.220430 14.565020 
0.160284 5.179759 0.938364 151.091800 26.118350 12.122890 
0.023831 5.162133 0.989753 149.726900 23.187380 9.453580 
-0.116966 5.136636 1.042005 148.312300 20.024690 6.760934 
-0.258853 5.102095 1.096636 147.070600 16.967190 4.515240 
-0.395585 5.058163 1.152037 145.663600 14.116830 2.396640 
-0.524575 5.005821 1.207262 144.580000 11.453140 0.902743 
-0.645788 4.947516 1.262847 143.524100 8.881347 -0.090454 
-0.759294 4.884498 1.317312 142.393200 6.607801 -0.973663 
-0.871118 4.817136 1.371204 141.329800 4.358118 -1.623779 
-0.983312 4.745807 1.427437 140.369100 1.999199 -2.313751 
-1.098211 4.669997 1.486616 139.321700 -0.742279 -3.075256 
-1.214697 4.588317 1.548822 138.520200 -3.812714 -3.763245 
-1.332089 4.500581 1.612236 137.610400 -7.146545 -4.409180 
-1.443057 4.408039 1.674664 136.543700 -10.265260 -4.833435 
-1.546505 4.315690 1.732259 135.562900 -13.097990 -5.271423 
